<svg width="18" height="18" viewBox="0 0 18 18" fill="none" xmlns="http://www.w3.org/2000/svg">
<path d="M18 9.00722C18 13.9727 13.9655 18 9 18C4.03448 18 0 13.9655 0 9.00722C0 4.0417 4.04892 0 9.01443 0C13.9727 0 18 4.0417 18 9.00722ZM0.909383 8.97835C0.858861 13.2366 4.27265 17.0473 8.90617 17.0978C13.4675 17.1484 17.0545 13.5686 17.1051 9.08661C17.1556 4.36648 13.316 0.923817 9.0433 0.894948C4.60465 0.873296 0.873296 4.5397 0.909383 8.97835Z" fill="#154A2F"/>
<path d="M9.45456 6.01934C9.45456 6.96481 9.45456 7.91749 9.45456 8.86296C9.45456 9.28157 9.28134 9.44757 8.86274 9.44757C7.10171 9.44757 5.34068 9.44757 3.58687 9.44757C3.47139 9.44757 3.35591 9.44757 3.25487 9.39705C3.08887 9.31765 2.98061 9.12279 3.00226 8.95679C3.03113 8.7547 3.15383 8.61036 3.34869 8.56705C3.45695 8.53818 3.56521 8.53818 3.67347 8.53818C5.21798 8.53818 6.76249 8.53818 8.29978 8.53818C8.54517 8.53818 8.55239 8.53818 8.55239 8.28558C8.55239 6.58951 8.55239 4.88622 8.55239 3.19015C8.55239 3.01693 8.55961 2.84372 8.69674 2.70659C8.93491 2.46842 9.31743 2.55502 9.42569 2.87259C9.46178 2.97363 9.46178 3.07467 9.46178 3.17571C9.45456 4.12118 9.45456 5.07387 9.45456 6.01934Z" fill="#154A2F"/>
</svg>
