<svg width="17" height="21" viewBox="0 0 17 21" fill="none" xmlns="http://www.w3.org/2000/svg">
<g clip-path="url(#clip0)">
<path d="M-0.00165783 8.19843C0.0235897 6.03572 0.764184 4.1544 2.32112 2.57055C3.73498 1.13143 5.46023 0.287247 7.52211 0.0540923C9.89538 -0.211222 12.0078 0.399804 13.8424 1.83089C15.6013 3.2057 16.6281 4.99858 16.9226 7.16129C17.133 8.75317 16.9226 10.2807 16.1399 11.7199C15.8454 12.2505 15.4751 12.7248 15.0543 13.167C14.3894 13.8665 13.6573 14.5016 12.9335 15.1368C11.2419 16.6242 9.92904 18.3527 9.10429 20.4109C9.07062 20.4993 9.03696 20.5878 8.99488 20.6682C8.89389 20.8611 8.75082 20.9978 8.51518 20.9978C8.27112 20.9978 8.1028 20.8853 8.01023 20.6762C7.81666 20.2582 7.63993 19.8401 7.43795 19.422C6.67211 17.8623 5.58646 16.5277 4.29042 15.3458C3.54983 14.6624 2.77557 14.0193 2.06864 13.3037C1.04191 12.2666 0.360224 11.0606 0.116164 9.64559C0.0320055 9.1632 -0.0184895 8.68082 -0.00165783 8.19843ZM8.48152 19.1969C8.51518 19.1487 8.53201 19.1326 8.54043 19.1165C9.45775 17.2593 10.7622 15.6755 12.3444 14.2926C13.0513 13.6735 13.7667 13.0625 14.4063 12.3791C14.8018 11.953 15.1469 11.4867 15.3909 10.9641C15.9632 9.75011 16.0474 8.46374 15.8706 7.16933C15.6266 5.41665 14.7934 3.92928 13.388 2.76351C11.5365 1.22791 9.36518 0.665118 6.97508 1.15555C4.45033 1.6701 2.66617 3.11726 1.63102 5.38449C1.11765 6.51007 0.966165 7.69192 1.06715 8.91397C1.16814 10.1039 1.54686 11.1732 2.33795 12.1058C2.96914 12.8535 3.72656 13.4806 4.45874 14.1318C5.68745 15.2252 6.82359 16.391 7.69043 17.7819C7.96815 18.2321 8.23746 18.6984 8.48152 19.1969Z" fill="#154A2F"/>
<path d="M8.4775 10.6673V10.6673C9.88646 10.6741 10.998 9.59193 11.0048 8.33462L8.4775 10.6673ZM8.4775 10.6673H8.47508M8.4775 10.6673H8.47508M8.47508 10.6673C7.07645 10.6673 5.97217 9.57271 5.97904 8.26751H5.97904M8.47508 10.6673L5.97904 8.26751M5.97904 8.26751V8.26488M5.97904 8.26751V8.26488M5.97904 8.26488C5.97904 7.00875 7.11553 5.90271 8.50874 5.90271M5.97904 8.26488L8.50874 5.90271M8.50874 5.90271C9.90096 5.90271 11.0116 7.01513 11.0048 8.33454L8.50874 5.90271Z" stroke="#154A2F"/>
</g>
<defs>
<clipPath id="clip0">
<rect width="17" height="21" fill="white"/>
</clipPath>
</defs>
</svg>
